# AST/ASF file generated using VICON BodyLanguage
# -----------------------------------------------
:version 1.10
:name VICON
:units
  mass 1.0
  length 0.45
  angle deg
:documentation
   .ast/.asf automatically generated from VICON data using
   VICON BodyBuilder and BodyLanguage model FoxedUp or BRILLIANT.MOD
:root
   order TX TY TZ RX RY RZ
   axis XYZ
   position 0 0 0  
   orientation 0 0 0 
:bonedata
  begin
     id 1 
     name lhipjoint
     direction 0.711131 -0.61297 0.344326 
     length 2.29162 
     axis 0 0 0  XYZ
  end
  begin
     id 2 
     name lfemur
     direction 0.34202 -0.939693 0  
     length 6.71424  
     axis 0 0 20  XYZ
    dof rx ry rz
    limits (-160.0 20.0)
           (-70.0 70.0)
           (-60.0 70.0)
  end
  begin
     id 3 
     name ltibia
     direction 0.34202 -0.939693 0   
     length 6.7087   
     axis 0 0 20   XYZ
    dof rx
    limits (-10.0 170.0)
  end
  begin
     id 4 
     name lfoot
     direction 0.0230374 -0.0632947 0.997729   
     length 1.56743   
     axis -90 7.62852e-016 20   XYZ
    dof rx rz
    limits (-45.0 90.0)
           (-70.0 20.0)
  end
  begin
     id 5 
     name ltoes
     direction 1.53585e-011 -4.21885e-011 1   
     length 0.802914   
     axis -90 7.62852e-016 20   XYZ
    dof rx
    limits (-90.0 20.0)
  end
  begin
     id 6 
     name rhipjoint
     direction -0.733192 -0.592884 0.333043   
     length 2.36925  
     axis 0 0 0  XYZ 
  end
  begin
     id 7 
     name rfemur
     direction -0.34202 -0.939693 0   
     length 6.67027   
     axis 0 0 -20   XYZ
    dof rx ry rz
    limits (-160.0 20.0)
           (-70.0 70.0)
           (-70.0 60.0)
  end
  begin
     id 8 
     name rtibia
     direction -0.34202 -0.939693 0   
     length 6.6862   
     axis 0 0 -20   XYZ
    dof rx
    limits (-10.0 170.0)
 end
 begin
     id 9 
     name rfoot
     direction -0.0949739 -0.260939 0.960672   
     length 1.67698  
     axis -90 -7.62852e-016 -20   XYZ
    dof rx rz
    limits (-45.0 90.0)
           (-20.0 70.0)
  end
  begin
     id 10 
     name rtoes
     direction -1.5353e-011 -4.21868e-011 1   
     length 0.846298   
     axis -90 -7.62852e-016 -20   XYZ
    dof rx
    limits (-90.0 20.0)
  end
  begin
     id 11 
     name lowerback
     direction -0.0206828 0.999785 -0.00109866   
     length 2.04382   
     axis 0 0 0   XYZ
    dof rx ry rz
    limits (-20.0 45.0)
           (-30.0 30.0)
           (-30.0 30.0)
  end
  begin
     id 12 
     name upperback
     direction -0.0105003 0.999727 -0.0208904   
     length 2.04538   
     axis 0 0 0   XYZ
    dof rx ry rz
    limits (-20.0 45.0)
           (-30.0 30.0)
           (-30.0 30.0)
  end
  begin
     id 13 
     name thorax
     direction -0.000416255 0.999808 -0.0196023   
     length 2.0399   
     axis 0 0 0   XYZ
    dof rx ry rz
    limits (-20.0 45.0)
           (-30.0 30.0)
           (-30.0 30.0)
  end
  begin
     id 14 
     name lowerneck
     direction 0.0627861 0.989205 0.13241   
     length 1.46207   
     axis 0 0 0   XYZ
    dof rx ry rz
    limits (-20.0 45.0)
           (-30.0 30.0)
           (-30.0 30.0)
  end
  begin
     id 15 
     name upperneck
     direction 0.00627179 0.994526 0.104303   
     length 1.41419   
     axis 0 0 0   XYZ
    dof rx ry rz
    limits (-20.0 45.0)
           (-30.0 30.0)
           (-30.0 30.0)
  end
  begin
     id 16
     name head
     direction -0.00443838 0.999688 0.0245968  
     length 1.50718  
     axis 0 0 0   XYZ
    dof rx ry rz
    limits (-20.0 45.0)
           (-30.0 30.0)
           (-30.0 30.0)
  end
  begin
     id 17 
     name lclavicle
     direction 0.758742 0.650995 -0.0227258  
     length 2.86888  
     axis 0 0 0   XYZ
    dof ry rz
    limits (-20.0 10.0)
           (0.0 20.0)
  end
  begin
     id 18 
     name lhumerus
     direction 1 -4.48962e-011 1.06664e-027   
     length 4.65776   
     axis -180 -30 -90   XYZ
    dof rx ry rz
    limits (-60.0 90.0)
           (-90.0 90.0)
           (-90.0 90.0)
  end
  begin
     id 19
     name lradius
     direction 1 -4.48968e-011 1.40404e-026   
     length 3.55539   
     axis -180 -30 -90   XYZ
    dof rx
    limits (-10.0 170.0)
  end
  begin
     id 20
     name lwrist
     direction 1 -4.48976e-011 3.32647e-026   
     length 1.77769   
     axis -2.20186e-014 90 90   XYZ
    dof ry
    limits (-180.0 0.0)
 end
  begin
     id 21 
     name lhand
     direction 1 -4.48982e-011 6.65293e-026   
     length 0.707264   
     axis -4.24514e-014 90 90   XYZ
    dof rx rz
    limits (-90.0 90.0)
           (-45.0 45.0)
  end
  begin
     id 22 
     name lfingers
     direction 1 -4.48966e-011 1.33059e-025   
     length 0.570215   
     axis -8.49028e-014 90 90   XYZ
    dof rx
    limits (0.0 90.0)
  end
  begin
     id 23
     name lthumb
     direction 0.707107 -6.3493e-011 0.707107   
     length 0.818718   
     axis -90 45 2.85299e-015   XYZ
    dof rx rz
    limits (-45.0 45.0)
           (-45.0 45.0)
  end
  begin
     id 24 
     name rclavicle
     direction -0.870343 0.482028 -0.100759   
     length 3.2251  
     axis 0 0 0   XYZ 
    dof ry rz
    limits (-10.0 20.0)
           (-20.0 0.0)
  end
  begin
     id 25 
     name rhumerus
     direction -1 -4.48974e-011 -9.45849e-028  
     length 4.71925   
     axis -180 30 90   XYZ
    dof rx ry rz
    limits (-90.0 60.0)
           (-90.0 90.0)
           (-90.0 90.0)
  end
  begin
     id 26 
     name rradius
     direction -1 -4.48965e-011 1.17607e-026   
     length 3.5699   
     axis -180 30 90   XYZ
    dof rx
    limits (-10.0 170.0)
  end
  begin
     id 27 
     name rwrist
     direction -1 -4.48968e-011 3.32647e-026   
     length 1.78495   
     axis -2.20186e-014 -90 -90   XYZ
    dof ry
    limits (-180.0 0.0)
  end
  begin
     id 28
     name rhand
     direction -1 -4.48995e-011 6.65293e-026   
     length 0.507757   
     axis -4.24514e-014 -90 -90   XYZ
    dof rx rz
    limits (-90.0 90.0)
           (-45.0 45.0)
  end
  begin
     id 29
     name rfingers
     direction -1 -4.48864e-011 1.33059e-025   
     length 0.409367   
     axis -8.49028e-014 -90 -90   XYZ
    dof rx
    limits (0.0 90.0)
  end
  begin
     id 30
     name rthumb
     direction -0.707107 -6.3494e-011 0.707107   
     length 0.587771   
     axis -90 -45 -2.85299e-015   XYZ
    dof rx rz
    limits (-45.0 45.0)
           (-45.0 45.0)
  end
:hierarchy
  begin
    root lhipjoint rhipjoint lowerback
    lhipjoint lfemur
    lfemur ltibia
    ltibia lfoot
    lfoot ltoes
    rhipjoint rfemur
    rfemur rtibia
    rtibia rfoot
    rfoot rtoes
    lowerback upperback
    upperback thorax
    thorax lowerneck lclavicle rclavicle
    lowerneck upperneck
    upperneck head
    lclavicle lhumerus
    lhumerus lradius
    lradius lwrist
    lwrist lhand lthumb
    lhand lfingers
    rclavicle rhumerus
    rhumerus rradius
    rradius rwrist
    rwrist rhand rthumb
    rhand rfingers
  end

#!OML:ASF E:\Steps\Project 1\Capture day 1\Session 2\Subject.ASF
:FULLY-SPECIFIED
:DEGREES
16
root 16.9423 17.9905 20.5665 -154.295 -1.58909 174.487
lowerback -32.161 -2.56615 -9.43789
upperback -0.498764 -0.471729 -0.336882
thorax 16.2325 -1.18907 4.44317
lowerneck -4.24644 -0.694086 -0.252248
upperneck 12.9673 -1.71468 2.67314
head 4.60617 -0.886979 0.759465
rclavicle -9.44227e-016 -1.39398e-014
rhumerus -39.1079 -21.1037 -75.2214
rradius 32.7417
rwrist -1.84459
rhand -4.94784 -52.0555
rfingers 7.12502
rthumb 20.8435 -80.9558
lclavicle -9.44227e-016 -1.39398e-014
lhumerus -31.0488 5.00962 81.842
lradius 23.3556
lwrist -4.2034
lhand -21.0871 -13.2998
lfingers 7.12502
lthumb 5.29025 16.6142
rfemur -21.3763 2.30826 17.6532
rtibia 5.83274
rfoot -18.7289 1.63745
rtoes 0.312525
lfemur -23.1197 -9.35855 -25.5107
ltibia 9.98922
lfoot -7.33665 -3.572
ltoes -5.32176
17
root 16.9407 17.9919 20.5631 -154.406 -1.60127 174.508
lowerback -32.0925 -2.55223 -9.40074
upperback -0.481176 -0.467345 -0.341594
thorax 16.2235 -1.18205 4.42211
lowerneck -4.17547 -0.662739 -0.297345
upperneck 12.9511 -1.66761 2.66591
head 4.58866 -0.867668 0.767512
rclavicle 2.03972e-014 -2.74571e-014
rhumerus -39.1311 -21.0844 -75.2313
rradius 32.7643
rwrist -1.914
rhand -5.31569 -52.8132
rfingers 7.12502
rthumb 20.4901 -81.752
lclavicle 2.03972e-014 -2.74571e-014
lhumerus -31.0504 5.10255 81.8085
lradius 23.3071
lwrist -4.31088
lhand -21.132 -13.3728
lfingers 7.12502
lthumb 5.24693 16.5423
rfemur -21.2155 2.30822 17.6714
rtibia 5.77671
rfoot -18.5058 1.75564
rtoes 1.55727
lfemur -22.9642 -9.4697 -25.4723
ltibia 9.95544
lfoot -7.23665 -3.29212
ltoes -4.66118
18
root 16.9425 17.9899 20.5658 -154.309 -1.65132 174.537
lowerback -32.1427 -2.59696 -9.40764
upperback -0.508476 -0.528653 -0.318924
thorax 16.2216 -1.21115 4.42283
lowerneck -4.16354 -0.635481 -0.375914
upperneck 12.813 -1.62397 2.77474
head 4.545 -0.841336 0.816711
rclavicle -5.2181e-015 -8.3738e-015
rhumerus -39.0668 -21.0939 -75.2666
rradius 32.7219
rwrist -1.92246
rhand -5.41926 -52.8563
rfingers 7.12502
rthumb 20.3905 -81.8058
lclavicle -5.2181e-015 -8.3738e-015
lhumerus -31.0359 5.23863 81.7486
lradius 23.2739
lwrist -4.37693
lhand -21.1797 -13.3484
lfingers 7.12502
lthumb 5.20081 16.5677
rfemur -21.3476 2.26851 17.7418
rtibia 5.81505
rfoot -18.4306 1.7808
rtoes 2.27592
lfemur -23.114 -9.46492 -25.4005
ltibia 10.0222
lfoot -7.11523 -3.27708
ltoes -3.74447
19
root 16.9389 17.9912 20.5651 -154.27 -1.49175 174.545
lowerback -32.2321 -2.5563 -9.38383
upperback -0.485783 -0.467769 -0.365423
thorax 16.2788 -1.18537 4.38266
lowerneck -4.27303 -0.599723 -0.360647
upperneck 12.335 -1.55457 2.77928
head 4.91061 -0.812738 0.91358
rclavicle -8.23093e-017 5.50385e-015
rhumerus -38.9135 -21.166 -75.3422
rradius 32.5978
rwrist -1.86158
rhand -5.28579 -53.7833
rfingers 7.12502
rthumb 20.5188 -82.719
lclavicle -8.23093e-017 5.50385e-015
lhumerus -30.9994 5.094 81.7353
lradius 23.3154
lwrist -4.23125
lhand -21.1788 -13.1929
lfingers 7.12502
lthumb 5.20169 16.7233
rfemur -21.5557 2.48395 17.664
rtibia 6.1008
rfoot -18.6107 1.71736
rtoes 2.58203
lfemur -23.1436 -9.49915 -25.4331
ltibia 9.98774
lfoot -7.14253 -3.08161
ltoes -4.30766
20
root 16.9416 17.9903 20.5659 -154.225 -1.63891 174.536
lowerback -32.237 -2.61874 -9.42761
upperback -0.484359 -0.533198 -0.359029
thorax 16.2915 -1.21753 4.38454
lowerneck -4.31264 -0.586308 -0.348798
upperneck 12.6971 -1.55966 2.90806
head 4.53446 -0.795159 0.856373
rclavicle -2.27205e-015 2.02077e-014
rhumerus -38.8823 -21.11 -75.4151
rradius 32.6207
rwrist -1.98955
rhand -5.30455 -54.5942
rfingers 7.12502
rthumb 20.5008 -83.5318
lclavicle -2.27205e-015 2.02077e-014
lhumerus -30.9686 4.87254 81.7824
lradius 23.3356
lwrist -4.06872
lhand -21.1753 -13.1175
lfingers 7.12502
lthumb 5.20509 16.7985
rfemur -21.5987 2.88411 17.6149
rtibia 6.1695
rfoot -18.8218 1.17336
rtoes 2.1106
lfemur -23.264 -9.50091 -25.4015
ltibia 10.1024
lfoot -7.21436 -3.31437
ltoes -4.47516
21
root 16.9397 17.9924 20.5635 -154.332 -1.65372 174.553
lowerback -32.1338 -2.63088 -9.39441
upperback -0.485562 -0.572101 -0.333506
thorax 16.2514 -1.22902 4.38121
lowerneck -4.24703 -0.564898 -0.456539
upperneck 12.3156 -1.51566 2.91112
head 4.90026 -0.792188 0.978229
rclavicle 1.50393e-014 -7.24322e-015
rhumerus -38.9876 -20.8638 -75.4623
rradius 32.7727
rwrist -2.10028
rhand -5.2356 -54.1576
rfingers 7.12502
rthumb 20.567 -83.0881
lclavicle 1.50393e-014 -7.24322e-015
lhumerus -31.0187 5.00252 81.7785
lradius 23.3021
lwrist -4.13675
lhand -21.122 -13.1927
lfingers 7.12502
lthumb 5.25655 16.7221
rfemur -21.4464 2.85768 17.6364
rtibia 6.11418
rfoot -19.0253 1.04932
rtoes 0.40842
lfemur -23.1593 -9.5497 -25.379
ltibia 10.1553
lfoot -7.40135 -3.49357
ltoes -3.26484
